<svg width="32" height="33" viewBox="0 0 32 33" fill="none" xmlns="http://www.w3.org/2000/svg">
<g clip-path="url(#clip0_2_997)">
<path d="M11.8765 31.6839C10.5143 31.6839 9.40325 30.5856 9.40325 29.2314C9.40325 27.877 10.5143 26.7787 11.8765 26.7787C13.2388 26.7787 14.3498 27.877 14.3498 29.2314L11.8765 31.6839ZM11.8765 31.6839C13.2388 31.6839 14.3498 30.5856 14.3498 29.2314L11.8765 31.6839ZM8.27324 29.2313C8.27324 27.2653 9.8881 25.6625 11.8765 25.6625C13.8649 25.6625 15.4798 27.2653 15.4798 29.2313C15.4798 31.1973 13.8649 32.8001 11.8765 32.8001C9.8881 32.8001 8.27324 31.1972 8.27324 29.2313Z" fill="#374F81" stroke="white" stroke-width="0.4"/>
<path d="M21.1209 29.2313C21.1209 27.2653 22.7358 25.6625 24.7242 25.6625C26.7125 25.6625 28.3274 27.2653 28.3274 29.2313C28.3274 31.1973 26.7125 32.8001 24.7242 32.8001C22.7358 32.8001 21.1209 31.1972 21.1209 29.2313ZM22.2509 29.2314C22.2509 30.5856 23.3619 31.6839 24.7242 31.6839C26.0864 31.6839 27.1974 30.5856 27.1974 29.2314C27.1974 27.877 26.0864 26.7787 24.7242 26.7787C23.3619 26.7787 22.2509 27.877 22.2509 29.2314Z" fill="#374F81" stroke="white" stroke-width="0.4"/>
<path d="M7.82947 8.11391L7.79736 7.95308L6.52806 1.59652C6.48296 1.37091 6.30686 1.19777 6.07593 1.15584L6.07591 1.15584L0.867508 0.20962L0.867329 0.209587C0.83208 0.20315 0.796971 0.2 0.762395 0.2C0.649044 0.2 0.538956 0.233682 0.443618 0.29903L0.443531 0.299089C0.319392 0.384082 0.23672 0.511162 0.209427 0.658332L7.82947 8.11391ZM7.82947 8.11391H7.99348M7.82947 8.11391H7.99348M7.99348 8.11391H31.2348C31.4087 8.11391 31.5695 8.19105 31.6776 8.3257L31.6777 8.32572C31.7853 8.45965 31.8242 8.63074 31.7854 8.79709L28.7471 21.8291C28.6877 22.0838 28.4627 22.2625 28.1966 22.2625H9.96696C9.69696 22.2625 9.46445 22.0717 9.41265 21.8123L5.52056 2.31834L5.49394 2.18501L5.36017 2.16071L0.663187 1.30751L0.663186 1.30751M7.99348 8.11391L0.663186 1.30751M0.663186 1.30751C0.513779 1.28037 0.385366 1.19783 0.29968 1.07488L0.663186 1.30751ZM27.5881 21.1464H27.7469L27.7829 20.9918L30.4672 9.47585L30.5244 9.23044H30.2724H8.29622H8.05235L8.10009 9.4696L10.399 20.9856L10.4311 21.1464H10.5951H27.5881ZM0.299658 1.07485C0.214077 0.951969 0.182328 0.804862 0.209416 0.65839L0.299658 1.07485Z" fill="#374F81" stroke="white" stroke-width="0.4"/>
</g>
<defs>
<clipPath id="clip0_2_997">
<rect width="32" height="33" fill="white"/>
</clipPath>
</defs>
</svg>
