<svg width="29" height="29" viewBox="0 0 29 29" fill="none" xmlns="http://www.w3.org/2000/svg">
<path d="M0.537037 26.8195C0.214815 26.8195 0 27.0375 0 27.3646C0 27.6916 0 28.1277 0 28.4548C0 28.7819 0.214815 28.9999 0.537037 28.9999H3.75926C4.08148 28.9999 4.2963 28.7819 4.2963 28.4548C4.2963 28.1277 4.51111 27.9097 4.83333 27.9097H11.2778C11.6 27.9097 11.8148 28.1277 11.8148 28.4548C11.8148 28.7819 12.0296 28.9999 12.3519 28.9999H16.6481C16.9704 28.9999 17.1852 28.7819 17.1852 28.4548C17.1852 28.1277 17.4 27.9097 17.7222 27.9097H24.1667C24.4889 27.9097 24.7037 28.1277 24.7037 28.4548C24.7037 28.7819 24.9185 28.9999 25.2407 28.9999H28.463C28.7852 28.9999 29 28.7819 29 28.4548C29 28.1277 29 27.6916 29 27.3646C29 27.0375 28.7852 26.8195 28.463 26.8195H0.537037Z" fill="#374F81"/>
<path d="M25.5631 24.212H2.68533C1.8827 24.212 1.17422 23.495 1.17422 22.6767V19.188C1.17422 18.3696 1.8827 17.6526 2.68533 17.6526H25.5631C26.3657 17.6526 27.0742 18.3696 27.0742 19.188V22.6767C27.0742 23.495 26.3657 24.212 25.5631 24.212ZM2.68533 18.5428C2.50104 18.5428 2.3399 18.6057 2.22474 18.7226C2.10971 18.8393 2.04829 19.0021 2.04829 19.188V22.6767C2.04829 22.8625 2.10971 23.0253 2.22474 23.1421C2.3399 23.259 2.50104 23.3218 2.68533 23.3218H25.5631C25.7474 23.3218 25.9085 23.259 26.0237 23.1421C26.1387 23.0253 26.2001 22.8625 26.2001 22.6767V19.188C26.2001 19.0021 26.1387 18.8393 26.0237 18.7226C25.9085 18.6057 25.7474 18.5428 25.5631 18.5428H2.68533Z" fill="#374F81" stroke="white" stroke-width="0.2"/>
<path d="M25.5631 15.3812H2.68533C1.8827 15.3812 1.17422 14.6642 1.17422 13.8458V10.4661C1.17422 9.64778 1.8827 8.93081 2.68533 8.93081H25.5631C26.3657 8.93081 27.0742 9.64778 27.0742 10.4661V13.9549C27.0742 14.7644 26.3749 15.3812 25.5631 15.3812ZM2.68533 9.82104C2.50104 9.82104 2.3399 9.88387 2.22474 10.0008C2.10971 10.1175 2.04829 10.2803 2.04829 10.4661V13.9549C2.04829 14.1407 2.10971 14.3035 2.22474 14.4203C2.3399 14.5372 2.50104 14.6 2.68533 14.6H25.5631C25.7474 14.6 25.9085 14.5372 26.0237 14.4203C26.1387 14.3035 26.2001 14.1407 26.2001 13.9549V10.4661C26.2001 10.2803 26.1387 10.1175 26.0237 10.0008C25.9085 9.88387 25.7474 9.82104 25.5631 9.82104H2.68533Z" fill="#374F81" stroke="white" stroke-width="0.2"/>
<path d="M25.5631 6.6594H2.68533C1.8827 6.6594 1.17422 5.94242 1.17422 5.12406V1.63534C1.17422 0.816974 1.8827 0.1 2.68533 0.1H25.5631C26.3657 0.1 27.0742 0.816974 27.0742 1.63534V5.12406C27.0742 5.94242 26.3657 6.6594 25.5631 6.6594ZM2.68533 0.990225C2.50104 0.990225 2.3399 1.05306 2.22474 1.16995C2.10971 1.28671 2.04829 1.44952 2.04829 1.63534V5.12406C2.04829 5.30987 2.10971 5.47269 2.22474 5.58945C2.3399 5.70634 2.50104 5.76917 2.68533 5.76917H25.5631C25.7474 5.76917 25.9085 5.70634 26.0237 5.58945C26.1387 5.47269 26.2001 5.30987 26.2001 5.12406V1.63534C26.2001 1.44952 26.1387 1.28671 26.0237 1.16995C25.9085 1.05306 25.7474 0.990225 25.5631 0.990225H2.68533Z" fill="#374F81" stroke="white" stroke-width="0.2"/>
</svg>
