<svg width="13" height="18" viewBox="0 0 13 18" fill="none" xmlns="http://www.w3.org/2000/svg">
<path d="M6.61349 16.8342C6.45272 16.8342 6.29791 16.7732 6.17882 16.6632C5.95554 16.4617 0.71875 11.6403 0.71875 6.92278C0.71875 3.564 3.36245 0.834229 6.61349 0.834229C9.86452 0.834229 12.5082 3.564 12.5082 6.92278C12.5082 8.00675 12.2284 9.18537 11.6806 10.422C11.24 11.4113 10.6267 12.4464 9.85559 13.4938C8.53374 15.2892 7.19701 16.5289 7.04815 16.6632C6.92906 16.7732 6.77425 16.8342 6.61349 16.8342ZM6.61349 1.20064C3.55894 1.20064 1.07601 3.76858 1.07601 6.92278C1.07601 8.78232 1.96915 10.9777 3.65719 13.2739C4.98797 15.0846 6.35745 16.3365 6.41402 16.3884C6.46761 16.4373 6.53906 16.4648 6.61349 16.4648C6.68791 16.4648 6.75639 16.4373 6.81295 16.3884C7.03029 16.193 12.151 11.4632 12.151 6.92278C12.151 3.76858 9.66803 1.20064 6.61349 1.20064ZM6.61349 10.3213C4.76468 10.3213 3.25825 8.77927 3.25825 6.88003C3.25825 4.98385 4.76171 3.43881 6.61349 3.43881C8.46229 3.43881 9.96872 4.98079 9.96872 6.88003C9.96872 8.77621 8.46229 10.3213 6.61349 10.3213ZM6.61349 3.80522C4.96117 3.80522 3.61551 5.18537 3.61551 6.88003C3.61551 8.57469 4.96117 9.95484 6.61349 9.95484C8.2658 9.95484 9.61147 8.57469 9.61147 6.88003C9.61147 5.18537 8.2658 3.80522 6.61349 3.80522Z" fill="white" stroke="white" stroke-width="0.6"/>
</svg>
