<svg width="16" height="16" viewBox="0 0 16 16" fill="none" xmlns="http://www.w3.org/2000/svg">
<path d="M12.6347 11.2388H5.7496C5.74676 11.2388 5.74532 11.2383 5.74437 11.2379C5.74309 11.2374 5.74146 11.2364 5.73986 11.2348C5.73826 11.2332 5.73726 11.2316 5.73672 11.2303C5.73632 11.2293 5.73584 11.2279 5.73584 11.2251C5.73584 11.2222 5.73632 11.2208 5.73672 11.2198C5.73726 11.2186 5.73826 11.2169 5.73986 11.2153C5.74146 11.2137 5.74309 11.2127 5.74437 11.2122C5.74532 11.2118 5.74676 11.2113 5.7496 11.2113H12.6345C12.6373 11.2113 12.6388 11.2118 12.6397 11.2122C12.641 11.2127 12.6426 11.2137 12.6442 11.2153C12.6458 11.2169 12.6468 11.2186 12.6474 11.2198C12.6478 11.2208 12.6483 11.2222 12.6483 11.2251C12.6483 11.2329 12.6421 11.2388 12.6347 11.2388Z" fill="#DAE0E8" stroke="#DAE0E8"/>
<path d="M12.6483 7.99997V8.00027C12.6483 8.00307 12.6478 8.00445 12.6474 8.00535C12.6469 8.00658 12.6459 8.00817 12.6444 8.00975C12.6428 8.01132 12.6412 8.01231 12.6399 8.01285C12.639 8.01325 12.6375 8.01373 12.6347 8.01373H5.7496C5.74676 8.01373 5.74532 8.01325 5.74437 8.01285C5.74309 8.0123 5.74146 8.01131 5.73986 8.00971C5.73826 8.0081 5.73726 8.00648 5.73672 8.00519C5.73632 8.00424 5.73584 8.00281 5.73584 7.99997C5.73584 7.99712 5.73632 7.99569 5.73672 7.99474C5.73726 7.99346 5.73826 7.99183 5.73986 7.99023C5.74146 7.98863 5.74309 7.98763 5.74437 7.98709C5.74532 7.98668 5.74676 7.98621 5.7496 7.98621H12.6345C12.6373 7.98621 12.6388 7.98668 12.6397 7.98709C12.641 7.98763 12.6426 7.98863 12.6442 7.99023C12.6458 7.99183 12.6468 7.99346 12.6474 7.99474C12.6478 7.99569 12.6483 7.99712 12.6483 7.99997Z" fill="#DAE0E8" stroke="#DAE0E8"/>
<path d="M12.6347 4.78887H5.7496C5.74676 4.78887 5.74532 4.7884 5.74437 4.78799C5.74309 4.78745 5.74146 4.78645 5.73986 4.78485C5.73826 4.78325 5.73726 4.78162 5.73672 4.78034C5.73632 4.77939 5.73584 4.77795 5.73584 4.77511C5.73584 4.77227 5.73632 4.77083 5.73672 4.76988C5.73726 4.7686 5.73826 4.76697 5.73986 4.76537C5.74146 4.76377 5.74309 4.76277 5.74437 4.76223C5.74532 4.76183 5.74676 4.76135 5.7496 4.76135H12.6345C12.6373 4.76135 12.6388 4.76183 12.6397 4.76223C12.641 4.76277 12.6426 4.76377 12.6442 4.76537C12.6458 4.76697 12.6468 4.7686 12.6474 4.76988C12.6478 4.77083 12.6483 4.77227 12.6483 4.77511C12.6483 4.78295 12.6421 4.78887 12.6347 4.78887Z" fill="#DAE0E8" stroke="#DAE0E8"/>
<path d="M3.73152 4.81498C3.73152 4.9199 3.64647 5.00496 3.54154 5.00496C3.43662 5.00496 3.35156 4.9199 3.35156 4.81498C3.35156 4.71006 3.43662 4.625 3.54154 4.625C3.64647 4.625 3.73152 4.71006 3.73152 4.81498Z" fill="#DAE0E8" stroke="#DAE0E8"/>
<path d="M3.73152 8.00004C3.73152 8.10496 3.64647 8.19002 3.54154 8.19002C3.43662 8.19002 3.35156 8.10496 3.35156 8.00004C3.35156 7.89512 3.43662 7.81006 3.54154 7.81006C3.64647 7.81006 3.73152 7.89512 3.73152 8.00004Z" fill="#DAE0E8" stroke="#DAE0E8"/>
<path d="M3.73152 11.1853C3.73152 11.2903 3.64647 11.3753 3.54154 11.3753C3.43662 11.3753 3.35156 11.2903 3.35156 11.1853C3.35156 11.0804 3.43662 10.9954 3.54154 10.9954C3.64647 10.9954 3.73152 11.0804 3.73152 11.1853Z" fill="#DAE0E8" stroke="#DAE0E8"/>
<path d="M0.5 0.5H13C14.3807 0.5 15.5 1.61929 15.5 3V15.5H3C1.61929 15.5 0.5 14.3807 0.5 13V0.5Z" stroke="#DAE0E8"/>
</svg>
