<svg width="16" height="17" viewBox="0 0 16 17" fill="none" xmlns="http://www.w3.org/2000/svg">
<g clip-path="url(#clip0_2_787)">
<path d="M14.1132 9.10195C14.0332 8.93139 14.0332 8.73648 14.1132 8.56288L14.6795 7.37206C14.9582 6.78426 14.7388 6.08378 14.1755 5.77618L13.037 5.15488C12.874 5.06656 12.7613 4.90819 12.7287 4.71936L12.5063 3.41586C12.3966 2.77019 11.8155 2.33772 11.184 2.42909L9.90621 2.61487C9.72239 2.64228 9.54154 2.58137 9.40813 2.44736L8.48015 1.5276C8.02061 1.07381 7.30313 1.07381 6.84655 1.5276L5.91858 2.44736C5.78516 2.57832 5.60431 2.63923 5.42049 2.61487L4.1486 2.43214C3.5171 2.34077 2.936 2.77324 2.82631 3.4189L2.60395 4.72241C2.57133 4.91123 2.45867 5.0696 2.29561 5.15793L1.15713 5.77922C0.593823 6.08683 0.371464 6.78731 0.653119 7.3751L1.21939 8.56593C1.29944 8.73648 1.29944 8.93139 1.21939 9.10499L0.653119 10.2928C0.374429 10.8806 0.593823 11.581 1.15713 11.8886L2.29561 12.5099C2.45867 12.5983 2.57133 12.7566 2.60395 12.9455L2.82631 14.249C2.92414 14.8276 3.41037 15.2479 3.97961 15.2479C4.03594 15.2479 4.09227 15.2449 4.1486 15.2357L5.42642 15.05C5.45607 15.0469 5.48275 15.0439 5.5124 15.0439C5.66657 15.0439 5.81184 15.1048 5.92451 15.2175L6.85248 16.1372C7.07484 16.3565 7.36539 16.4783 7.67076 16.4783C7.97614 16.4783 8.26669 16.3565 8.48904 16.1372L9.41702 15.2175C9.55044 15.0865 9.73129 15.0256 9.9151 15.05L11.1929 15.2357C11.8244 15.3271 12.4055 14.8946 12.5152 14.249L12.7376 12.9455C12.7702 12.7566 12.8829 12.5983 13.0459 12.5099L14.1844 11.8886C14.7477 11.581 14.9701 10.8806 14.6884 10.2928L14.1132 9.10195ZM13.9027 11.3618L12.7643 11.9831C12.4411 12.1597 12.2217 12.4704 12.1565 12.8419L11.9341 14.1454C11.8778 14.4713 11.5843 14.6906 11.2641 14.6449L9.98626 14.4591C9.62456 14.4073 9.26582 14.5261 9.00492 14.788L8.07694 15.7078C7.96131 15.8235 7.81307 15.8814 7.66187 15.8814C7.51363 15.8814 7.36243 15.8235 7.2468 15.7078L6.31882 14.788C6.09943 14.5688 5.80888 14.4469 5.50647 14.4469C5.45014 14.4469 5.39381 14.45 5.33748 14.4591L4.05966 14.6449C3.73946 14.6906 3.44595 14.4713 3.38961 14.1454L3.16726 12.8419C3.105 12.4734 2.88264 12.1597 2.55948 11.9831L1.42989 11.3618C1.14527 11.2064 1.03261 10.8501 1.17492 10.5516L1.74119 9.36082C1.90129 9.02276 1.90129 8.63902 1.74119 8.30096L1.17492 7.11014C1.03261 6.81167 1.14527 6.45534 1.42989 6.30002L2.56837 5.67872C2.89153 5.50208 3.11092 5.19143 3.17615 4.81987L3.39851 3.51636C3.45484 3.19048 3.74835 2.96816 4.06855 3.01689L5.34637 3.20267C5.70808 3.25444 6.06682 3.13566 6.32772 2.87374L7.25569 1.95398C7.48695 1.72252 7.85161 1.72252 8.08287 1.95398L9.01085 2.87374C9.26878 3.13871 9.62752 3.26053 9.98922 3.20571L11.267 3.01993C11.5872 2.97425 11.8808 3.19353 11.9371 3.51941L12.1594 4.82291C12.2217 5.19143 12.4441 5.50512 12.7672 5.68176L13.9057 6.30306C14.1903 6.45839 14.303 6.81472 14.1607 7.11319L13.5944 8.30401C13.4343 8.64206 13.4343 9.02581 13.5944 9.36387L14.1607 10.5547C14.3 10.8532 14.1874 11.2064 13.9027 11.3618Z" fill="#DAE0E8" stroke="#DAE0E8" stroke-width="0.3"/>
<path d="M10.9032 5.50649C10.8474 5.44912 10.7698 5.41406 10.6891 5.41406C10.6085 5.41406 10.5309 5.44594 10.475 5.50649L4.42787 11.7185C4.37202 11.7758 4.33789 11.8555 4.33789 11.9384C4.33789 12.0212 4.36892 12.1009 4.42787 12.1583C4.48372 12.2157 4.56129 12.2507 4.64196 12.2507C4.72263 12.2507 4.80019 12.2189 4.85604 12.1583L10.9032 5.94952C10.9591 5.89215 10.9932 5.81247 10.9932 5.7296C10.9901 5.64355 10.9591 5.56705 10.9032 5.50649Z" fill="#DAE0E8" stroke="#DAE0E8" stroke-width="0.3"/>
<path d="M5.83398 7.8905C6.67481 7.8905 7.35741 7.18931 7.35741 6.32556C7.35741 5.46182 6.67481 4.76062 5.83398 4.76062C4.99314 4.76062 4.31055 5.46182 4.31055 6.32556C4.31055 7.18931 4.99314 7.8905 5.83398 7.8905ZM5.83398 5.37895C6.33972 5.37895 6.75238 5.80285 6.75238 6.32237C6.75238 6.84189 6.33972 7.2658 5.83398 7.2658C5.32824 7.2658 4.91557 6.84189 4.91557 6.32237C4.91557 5.80285 5.32513 5.37895 5.83398 5.37895Z" fill="#DAE0E8" stroke="#DAE0E8" stroke-width="0.3"/>
<path d="M9.49804 9.77747C8.65721 9.77747 7.97461 10.4787 7.97461 11.3424C7.97461 12.2062 8.65721 12.9073 9.49804 12.9073C10.3389 12.9073 11.0215 12.2062 11.0215 11.3424C11.0215 10.4787 10.3389 9.77747 9.49804 9.77747ZM9.49804 12.289C8.9923 12.289 8.57964 11.8651 8.57964 11.3456C8.57964 10.8261 8.9923 10.4022 9.49804 10.4022C10.0038 10.4022 10.4164 10.8261 10.4164 11.3456C10.4164 11.8651 10.0038 12.289 9.49804 12.289Z" fill="#DAE0E8" stroke="#DAE0E8" stroke-width="0.3"/>
</g>
<defs>
<clipPath id="clip0_2_787">
<rect width="14.9333" height="16" fill="white" transform="translate(0.199219 0.833984)"/>
</clipPath>
</defs>
</svg>
