<svg width="14" height="14" viewBox="0 0 14 14" fill="none" xmlns="http://www.w3.org/2000/svg">
<path d="M13.5124 4.0204C13.2431 4.0204 13.0249 3.81301 13.0249 3.5572V1.58226L9.88455 4.56493C9.78931 4.65535 9.66456 4.70055 9.53981 4.70055C9.41499 4.70055 9.29017 4.65535 9.19499 4.56487C9.00458 4.38398 9.00458 4.09068 9.19506 3.90985L12.3355 0.927122H10.2562C9.98688 0.927122 9.76858 0.719734 9.76858 0.463927C9.76858 0.20812 9.98681 0.000732422 10.2562 0.000732422H13.5124C13.7818 0.000732422 14 0.20812 14 0.463927V3.55727C14 3.81301 13.7818 4.0204 13.5124 4.0204Z" fill="white"/>
<path d="M0.487514 9.28004C0.75685 9.28004 0.975088 9.48743 0.975088 9.74323V11.7182L4.21206 8.64312C4.40254 8.46222 4.71121 8.46222 4.90162 8.64312C5.09204 8.82401 5.09204 9.1173 4.90162 9.29813L1.66471 12.3732H3.74354C4.01287 12.3732 4.23111 12.5806 4.23111 12.8364C4.23111 13.0922 4.01287 13.2996 3.74354 13.2996H0.487449C0.218113 13.2996 -0.000125408 13.0922 -0.000125408 12.8364V9.74323C-6.05583e-05 9.48743 0.218242 9.28004 0.487514 9.28004Z" fill="white"/>
<path d="M9.78772 8.643L13.0244 11.7181V9.74312C13.0244 9.48731 13.2426 9.27993 13.5119 9.27993C13.7813 9.27993 13.9995 9.48731 13.9995 9.74312V12.8364C13.9995 13.0922 13.7813 13.2996 13.5119 13.2996H10.256C9.98672 13.2996 9.76841 13.0922 9.76841 12.8364C9.76841 12.5806 9.98665 12.3732 10.256 12.3732H12.3349L9.09816 9.29802C8.90775 9.11713 8.90775 8.82383 9.09823 8.64294C9.28851 8.46211 9.59724 8.46211 9.78772 8.643Z" fill="white"/>
<path d="M0.487483 0H3.74357C4.0129 0 4.23114 0.207388 4.23114 0.463195C4.23114 0.719002 4.0129 0.92639 3.74357 0.92639H1.66462L4.80446 3.90943C4.99488 4.09032 4.99488 4.38362 4.8044 4.56451C4.70922 4.65492 4.58441 4.70013 4.45965 4.70013C4.3349 4.70013 4.21008 4.65486 4.11484 4.56445L0.974992 1.58141V3.55647C0.974992 3.81228 0.756754 4.01967 0.487418 4.01967C0.218082 4.01967 -0.000155926 3.81228 -0.000155926 3.55647V0.463195C-9.10759e-05 0.207326 0.218212 0 0.487483 0Z" fill="white"/>
</svg>
