<svg width="205" height="47" viewBox="0 0 205 47" fill="none" xmlns="http://www.w3.org/2000/svg">
<path d="M41.1208 11.9592C39.2594 11.9592 37.8209 12.3819 37.8209 12.8891L37.7363 20.0743C37.7363 20.5815 39.2594 21.0042 41.0362 21.0042C42.8977 21.0042 44.3361 20.5815 44.3361 20.0743L44.4207 12.8891C44.5053 12.3819 42.9823 11.9592 41.1208 11.9592ZM43.5746 13.3117V17.3693C43.5746 17.6229 43.49 17.792 43.2362 17.8765C43.0669 17.961 42.9823 17.792 42.9823 17.5384V16.1013C42.9823 15.8477 42.8977 15.7632 42.6439 15.8477C42.4746 15.9323 42.39 16.1013 42.39 16.3549V16.4394C42.39 16.693 42.3054 16.8621 42.0516 16.9466C41.8824 17.0312 41.7131 16.8621 41.7131 16.6085V13.988L41.4593 13.7344H41.1208C39.5132 13.7344 38.244 13.3963 38.244 12.9736C38.244 12.551 39.5978 12.2128 41.1208 12.2128C42.7285 12.2128 43.9977 12.551 43.9977 12.9736C44.0823 13.0582 43.9131 13.2272 43.5746 13.3117Z" fill="#ED1C24"/>
<path d="M14.5539 16.9468V11.0295C14.5539 11.0295 14.4693 10.7759 14.1309 10.6914C13.7924 10.6069 8.54644 9.00075 8.54644 9.00075C8.54644 9.00075 8.37722 8.91622 8.12338 9.08528C7.86954 9.16981 3.30045 10.7759 3.30045 10.7759C3.30045 10.7759 3.04661 10.7759 3.04661 11.1986C3.04661 11.5367 2.962 17.0313 2.962 17.0313L0.931292 18.2148L0.84668 20.4972L1.69281 20.7507L3.46968 19.6518L4.65425 20.0745V21.6806L5.50038 21.9342L7.19264 20.8353L8.71567 21.1734V22.7795L9.56179 23.0331L15.7385 19.5673L15.8231 17.2004L14.5539 16.9468ZM3.6389 10.7759C3.97735 10.6914 8.12338 9.16981 8.12338 9.16981C8.12338 9.16981 8.2926 9.08528 8.46183 9.16981C8.63105 9.25434 13.7078 10.6914 13.7078 10.6914C13.7078 10.6914 13.7924 10.7759 13.6232 10.7759C13.454 10.8605 9.81563 12.4666 9.81563 12.4666C9.81563 12.4666 9.56179 12.5511 9.39257 12.5511C9.22334 12.5511 3.46968 10.945 3.46968 10.945C3.46968 10.945 3.38506 10.945 3.6389 10.7759ZM3.30045 11.4522C3.30045 11.2831 3.46968 11.2831 3.46968 11.2831L9.56179 13.0583C9.56179 13.0583 9.81563 13.1428 9.81563 13.3119C9.81563 13.481 9.73102 13.481 9.73102 13.481L3.30045 11.6213C3.30045 11.5367 3.30045 11.4522 3.30045 11.4522ZM3.30045 12.382C3.30045 12.213 3.46968 12.213 3.46968 12.213L9.56179 13.9882C9.56179 13.9882 9.81563 14.0727 9.81563 14.2418C9.81563 14.4108 9.73102 14.4108 9.73102 14.4108L3.30045 12.4666V12.382ZM3.30045 13.3119C3.30045 13.0583 3.46968 13.1428 3.46968 13.1428L9.56179 14.918C9.56179 14.918 9.81563 15.0025 9.81563 15.1716C9.81563 15.3407 9.73102 15.3407 9.73102 15.3407L3.30045 13.3964C3.30045 13.481 3.30045 13.3119 3.30045 13.3119ZM3.21584 14.3263C3.21584 14.0727 3.38506 14.1572 3.38506 14.1572L9.56179 15.9324C9.56179 15.9324 9.81563 16.0169 9.81563 16.186C9.81563 16.3551 9.73102 16.3551 9.73102 16.3551L3.30045 14.4108V14.3263H3.21584ZM3.21584 15.2561C3.21584 15.0871 3.38506 15.0871 3.38506 15.0871L9.47718 16.8623C9.47718 16.8623 9.73102 16.9468 9.73102 17.1159C9.73102 17.2849 9.64641 17.2849 9.64641 17.2849L3.21584 15.3407V15.2561V15.2561ZM3.21584 16.186C3.21584 15.9324 3.38506 16.0169 3.38506 16.0169L9.47718 17.7921C9.47718 17.7921 9.73102 17.8766 9.73102 18.0457C9.73102 18.2148 9.64641 18.2148 9.64641 18.2148L3.21584 16.2705V16.186V16.186ZM3.21584 17.0313C3.21584 16.7777 3.38506 16.8623 3.38506 16.8623L9.47718 18.6374C9.47718 18.6374 9.73102 18.722 9.73102 18.891C9.73102 19.0601 9.64641 19.0601 9.64641 19.0601L3.21584 17.2004C3.21584 17.2004 3.21584 17.0313 3.21584 17.0313ZM2.20048 19.99V19.2292L2.962 19.4828C3.04661 19.4828 2.20048 19.99 2.20048 19.99ZM6.00806 21.0889V20.3281L6.76957 20.5817L6.00806 21.0889ZM10.1541 22.2723V21.0889L11.6771 20.2436L11.7617 20.7507L12.4386 20.9198L10.1541 22.2723ZM13.1155 20.5817V19.3982L14.3001 18.722V19.3982H15.0616L13.1155 20.5817ZM9.56179 20.4972L1.60819 18.1302L2.87739 17.3695L9.73102 19.3982L14.2155 17.0313L15.4001 17.2849L9.56179 20.4972Z" fill="#ED1C24"/>
<path d="M8.88477 6.88724V5.28113H9.30783V6.88724H8.88477Z" fill="#000C2C"/>
<path d="M8.37695 6.88724V5.28113H8.71541V6.88724H8.37695Z" fill="#000C2C"/>
<path d="M8.03711 6.63365L8.29095 6.88724V5.28113L8.03711 5.53473V6.63365Z" fill="#000C2C"/>
<path d="M12.6063 8.0708C13.7062 8.0708 14.637 7.14094 14.637 5.95749C14.637 4.77404 13.7062 3.92871 12.6063 3.92871C12.2678 3.92871 12.014 4.01324 11.8447 4.01324H11.7601C11.6755 4.01324 11.6755 4.01324 11.6755 4.09778C11.3371 4.26684 10.6602 4.52044 10.1525 4.77403C9.47559 5.11216 9.47559 5.45029 9.47559 5.95749V6.04202C9.47559 6.54922 9.47559 6.97188 10.1525 7.22547C10.6602 7.47907 11.3371 7.73267 11.6755 7.90173C11.7601 7.90173 11.7601 7.98627 11.7601 7.98627H11.8447C12.0986 8.0708 12.3524 8.0708 12.6063 8.0708Z" fill="#000C2C"/>
<path d="M29.1068 28.274H29.1914C29.276 28.274 29.276 28.274 29.276 28.1895C29.3606 28.1895 29.3606 28.1895 29.3606 28.105C29.4453 28.105 29.4453 28.0204 29.4453 28.0204L29.5299 27.9359C29.6145 27.8514 29.6145 27.8514 29.6991 27.8514L29.8683 27.6823C29.9529 27.5978 29.9529 27.5978 29.9529 27.5132C30.1222 27.2596 30.2068 27.006 30.2068 26.6679C30.2068 25.7381 29.4453 25.0618 28.5991 25.0618H22.8455H22.4224C21.9993 24.9773 21.407 25.3154 21.3224 25.3999C21.2378 25.4845 21.1532 25.569 21.1532 25.6535V25.8226V25.6535C21.1532 25.6535 21.1532 25.569 21.0686 25.569H20.8147C20.3071 25.569 19.7148 25.6535 19.2071 25.7381C18.9533 25.8226 18.8687 25.9071 18.8687 25.9917V26.1607C18.784 26.1607 18.6148 26.2452 18.6148 26.2452C18.5302 26.2452 18.5302 26.3298 18.5302 26.3298V26.4143C18.4456 26.4143 18.361 26.4988 18.2764 26.4988V26.7524C18.361 26.837 18.361 26.837 18.5302 26.837V26.9215C18.5302 27.006 18.5302 27.006 18.6148 27.006C18.6994 27.006 18.8687 27.0906 18.8687 27.1751V27.4287C18.8687 27.5132 19.0379 27.5978 19.2071 27.6823C19.7148 27.8514 20.3071 27.9359 20.8147 27.9359H21.0686C21.1532 27.9359 21.1532 27.8514 21.1532 27.8514V27.7668V28.0204C21.1532 28.6967 22.7608 28.6967 22.7608 28.6967C22.7608 28.9503 23.0147 28.9503 23.0147 28.9503H23.3531C24.2839 29.4575 23.6916 30.3028 24.03 30.3028C24.1993 30.3028 24.3685 30.3873 24.4531 30.3873C24.4531 30.4719 24.5377 30.4719 24.5377 30.4719C25.0454 30.5564 25.2146 30.81 25.2992 31.2327C25.2992 31.9089 25.6377 32.6697 25.6377 32.6697C25.6377 32.7542 25.6377 32.8388 25.7223 32.9233C24.7069 32.5006 24.5377 32.7542 24.5377 32.9233L24.7069 34.8676C24.7069 35.1212 24.9608 35.2057 26.23 35.2057C27.4992 35.2057 29.1068 34.9521 29.1068 34.6985L29.1914 32.8388C29.1914 32.7542 29.0222 32.5852 28.7683 32.5852V32.2471L28.5145 31.0636L28.0914 29.0348C27.8376 28.1895 28.3453 28.3586 28.7683 28.3586C28.853 28.3586 28.853 28.274 28.853 28.274C28.9376 28.274 29.1068 28.274 29.1068 28.274Z" fill="#ED1C24"/>
<path d="M21.0682 46.6176C21.0682 46.6176 28.2603 47.7166 29.7833 44.5889C30.5448 43.0673 30.714 41.9684 31.5601 41.5457C31.814 41.4612 31.8986 41.3766 32.0678 41.3766C32.3217 41.3766 32.5755 41.123 32.5755 40.7004C32.5755 40.3622 32.0678 40.1086 31.5601 40.1086L18.9529 40.1932C18.4452 40.1932 17.9375 40.4468 17.9375 40.7849C17.9375 41.123 18.0221 41.3766 18.1067 41.3766C18.1913 41.3766 18.4452 41.7993 18.5298 42.5601C18.699 43.1518 19.0375 45.6878 21.0682 46.6176Z" fill="#000C2C"/>
<path d="M12.0146 33.0924C12.0146 33.2615 12.0993 33.4305 12.2685 33.4305H20.1375C20.3067 33.4305 20.3913 33.2615 20.3913 33.0924V29.7957C20.3913 29.6266 20.3067 29.4575 20.1375 29.4575H12.2685C12.0993 29.4575 12.0146 29.6266 12.0146 29.7957V33.0924Z" fill="#000C2C"/>
<path d="M15.9063 37.6571H16.2447V36.8963C16.2447 36.3891 16.0755 36.1355 15.7371 35.9664C15.4832 35.7974 12.5218 34.1912 12.0141 34.0222C11.591 33.7686 11.5064 33.684 11.5064 33.4304L11.6756 32.0779C11.6756 31.8243 11.7603 31.6553 11.9295 31.6553H12.1833V31.3171H11.9295C11.591 31.3171 11.3372 31.6553 11.3372 32.0779L11.168 33.4304C11.168 33.8531 11.4218 34.1067 11.8449 34.2758C12.2679 34.5294 15.2294 36.051 15.4832 36.22C15.7371 36.3045 15.8217 36.5581 15.8217 36.8963C15.8217 36.8963 15.9063 37.6571 15.9063 37.6571Z" fill="#000C2C"/>
<path d="M15.3154 37.8262C15.3154 37.6572 15.4 37.5726 15.5692 37.5726H16.6692C16.8384 37.5726 16.923 37.6572 16.923 37.8262L17.1769 45.2651C17.1769 45.4341 17.0923 45.5187 16.923 45.5187H15.4C15.2308 45.5187 15.1462 45.4341 15.1462 45.2651C15.0616 45.2651 15.3154 37.8262 15.3154 37.8262Z" fill="#000C2C"/>
<path d="M7.61427 35.9665C7.36043 36.0511 7.27582 35.9665 7.02198 35.7129L6.59891 35.2903L6.42969 35.5439L6.93736 35.9665C7.1912 36.2201 7.52965 36.3047 7.78349 36.2201" fill="#ED1C24"/>
<path d="M6.7692 34.7831C6.85381 34.8676 6.85381 35.0367 6.7692 35.0367L6.17691 35.7129C6.0923 35.7975 5.92307 35.7975 5.83846 35.7129L1.94627 32.5007C1.86166 32.4162 1.86166 32.2471 1.94627 32.1626L2.70779 31.2327C2.7924 31.1482 2.96163 31.1482 2.96163 31.2327L6.7692 34.7831Z" fill="#ED1C24"/>
<path d="M7.44633 40.2776C5.83869 38.5025 6.43098 37.1499 7.70017 35.9665C8.96936 34.783 10.3232 34.2758 12.0154 36.051C13.6231 37.8262 14.2154 41.9683 13.6231 42.3909C13.1154 42.8981 9.05397 42.0528 7.44633 40.2776Z" fill="#ED1C24"/>
<path d="M10.0687 30.3873L8.20718 29.3729L6.3457 30.4718V32.5852L8.20718 33.5996L10.0687 32.5006V30.3873V30.3873ZM7.78412 32.247C7.36106 31.9934 7.27644 31.4862 7.44567 31.0636C7.69951 30.6409 8.20718 30.5564 8.63025 30.7254C9.05331 30.979 9.13792 31.4862 8.9687 31.9089C8.71486 32.3316 8.20718 32.5006 7.78412 32.247Z" fill="#000C2C"/>
<path d="M3.80669 23.6248C4.06052 23.7093 4.06052 23.8784 4.06052 23.8784L4.22975 26.2453L3.12978 28.0205C3.12978 28.0205 3.04517 28.2741 2.96056 28.2741C2.87595 28.3586 2.70672 28.3586 2.28366 28.1895C1.60675 27.9359 0.760626 27.9359 0.5914 27.8514C0.422175 27.7669 0.506788 27.5133 0.676013 27.4287C0.929852 27.1751 0.5914 26.837 0.506788 26.4989C0.422175 26.0762 0.168337 25.1464 0.252949 24.8928C0.337562 24.5546 0.337562 24.3856 0.0837237 24.132C-0.170115 23.8784 -0.423953 23.2867 0.422175 23.5403C1.52214 23.7093 2.62211 23.2867 3.80669 23.6248ZM1.77598 24.3856C1.86059 24.4701 1.9452 24.6392 1.86059 24.8082C1.77598 25.0618 1.69137 25.2309 1.77598 25.3154C1.86059 25.4 1.86059 25.6536 1.77598 25.8226C1.69137 25.9917 1.77598 26.0762 1.77598 26.2453C1.9452 26.5834 1.69137 26.5834 1.69137 26.837C1.69137 27.0906 1.86059 27.2597 2.11443 27.3442C2.36827 27.4287 2.45288 27.4287 2.53749 27.4287C2.62211 27.4287 2.70672 27.4287 2.70672 27.1751V24.7237C2.70672 24.3856 2.62211 24.3856 2.36827 24.301C2.02982 24.301 1.9452 24.301 1.9452 24.301C1.77598 24.2165 1.77598 24.301 1.77598 24.3856Z" fill="#000C2C"/>
<path d="M17.5987 0.71649C17.5141 0.71649 17.5141 0.631958 17.4294 0.631958H17.3448L17.2602 0.71649C17.1756 0.71649 17.1756 0.801023 17.2602 0.801023C17.3448 1.05462 17.5141 1.39275 17.5987 1.64635C17.6833 1.89994 17.6833 1.98448 17.5141 2.15354C17.4294 2.23807 17.4294 2.23807 17.3448 2.23807C17.091 2.23807 17.0064 2.32261 16.8372 2.32261H16.5833C16.3295 2.32261 16.0756 2.32261 15.9064 2.15354C15.8218 2.06901 15.568 1.05462 15.4834 1.05462H15.3987L15.3141 1.13915L15.2295 1.22368C14.6372 2.15354 14.9757 2.74527 15.2295 2.99886C15.568 3.42153 15.9064 3.75966 15.9064 3.75966C15.9064 3.75966 16.1603 4.09779 16.1603 4.35138C16.1603 4.60498 16.2449 12.1284 16.2449 12.382C16.2449 12.6356 16.1603 12.8892 15.991 13.0582C15.9064 13.2273 15.7372 13.3963 15.6526 13.5654C15.568 13.6499 15.3987 13.819 15.3987 14.1571C15.3987 14.4107 15.4834 14.4953 15.6526 14.7489C15.9064 15.0025 15.991 15.087 16.3295 15.3406L16.4141 15.4251H16.4987L16.5833 15.3406V15.2561C16.5833 15.087 16.3295 14.6643 16.2449 14.4953V14.3262C16.3295 14.2417 16.3295 14.1571 16.4141 14.0726C16.7525 13.9035 17.1756 13.819 17.5141 13.9881C17.5141 13.9881 17.5987 13.9881 17.5987 14.0726L17.6833 14.1571C17.8525 14.5798 17.9371 14.8334 18.0217 14.9179C18.0217 14.9179 18.1063 15.0025 18.1063 14.9179C18.191 14.9179 18.191 14.8334 18.191 14.8334C18.2756 14.8334 18.2756 14.7489 18.2756 14.7489C18.9525 13.819 18.1063 13.1427 17.9371 12.7201C17.6833 12.4665 17.6833 12.382 17.6833 12.0438C17.5987 11.7902 17.5987 4.43591 17.5141 4.18232C17.5141 3.92872 17.5141 3.84419 17.5987 3.67512C17.7679 3.25246 17.8525 3.25246 18.1063 2.91433C18.2756 2.8298 18.8679 2.32261 18.2756 1.47728C18.191 1.13915 17.7679 0.801023 17.5987 0.71649Z" fill="#000C2C"/>
<path d="M25.8055 21.0888C25.8055 21.0042 25.8055 21.0042 25.8901 20.9197C25.8901 20.8352 25.8901 20.8352 25.8055 20.8352C25.8901 20.6661 25.8901 20.5816 25.8901 20.4971V20.4125C25.8901 20.4125 25.9747 20.4125 25.9747 20.328V20.1589C25.9747 20.0744 25.9747 20.0744 25.8901 20.0744V19.5672L25.9747 19.4827V19.3981V19.2291C25.9747 19.1445 25.9747 19.1445 25.8901 19.1445V18.6373V18.4683C25.8901 18.3837 25.8055 18.3837 25.8055 18.3837C25.8055 18.2147 25.7209 18.0456 25.7209 17.8765V17.7075C25.7209 17.623 25.6363 17.623 25.6363 17.623C25.6363 17.4539 25.5517 17.2848 25.5517 17.1158C25.5517 17.0312 25.5517 17.0312 25.4671 16.9467C25.4671 16.8622 25.3824 16.8622 25.3824 16.8622C25.2978 16.6931 25.2978 16.524 25.2978 16.355C25.2978 16.2704 25.2978 16.2704 25.2132 16.1859C25.2132 16.1014 25.1286 16.1014 25.1286 16.1014C25.044 15.9323 25.044 15.7632 25.044 15.5942C25.044 15.5096 24.9594 15.5096 24.9594 15.4251C24.9594 15.3406 24.8748 15.3406 24.8748 15.3406C24.7901 15.256 24.7901 15.087 24.7901 15.0024V14.9179C24.7055 14.4953 24.5363 14.1571 24.3671 13.7345C24.2825 13.5654 24.3671 13.3118 24.4517 13.2273C24.5363 13.1427 24.5363 13.1427 24.6209 13.1427C24.7055 13.0582 24.8748 12.8891 24.8748 12.8046V13.3118C24.7901 13.2273 24.7055 13.2273 24.6209 13.2273C24.5363 13.2273 24.3671 13.2273 24.1979 13.3118C24.0286 13.3963 23.944 13.3963 23.8594 13.3963V12.4665H23.7748C23.8594 12.3819 23.8594 12.2129 23.8594 12.1283V12.0438C23.8594 11.9593 23.8594 11.7902 23.7748 11.7057L24.0286 11.6212V11.5366V10.015C24.0286 9.84597 23.944 9.67691 23.944 9.67691L23.0133 7.47906L22.5056 7.39453L22.0825 7.47906H21.9979L21.1518 9.33878C21.1518 9.33878 21.0672 9.42331 21.0672 9.59237V11.1985H21.1518L21.321 11.283C21.2364 11.3676 21.2364 11.5366 21.2364 11.6212V11.7057C21.2364 11.7902 21.2364 11.9593 21.321 12.0438L21.0672 12.1283V13.0582C20.9826 12.9737 20.8133 12.9737 20.7287 12.9737C20.5595 12.8891 20.3903 12.8891 20.3057 12.8891C20.2211 12.8891 20.0518 12.8891 20.0518 12.9737V13.0582C20.0518 13.1427 20.1364 13.3118 20.3057 13.3963C20.3903 13.4809 20.3903 13.4809 20.4749 13.4809C20.6441 13.5654 20.7287 13.819 20.6441 13.9881C20.4749 14.4107 20.3903 14.7489 20.2211 15.1715V15.256C20.1364 15.3406 20.1364 15.5096 20.1364 15.5942C20.0518 15.5942 20.0518 15.5942 20.0518 15.6787C20.0518 15.7632 19.9672 15.7632 19.9672 15.8478L20.0518 15.9323C19.9672 16.1014 19.9672 16.2704 19.9672 16.4395C19.8826 16.4395 19.8826 16.524 19.8826 16.524C19.8826 16.6086 19.8826 16.6086 19.798 16.6931C19.7134 16.8622 19.7134 17.0312 19.7134 17.2003C19.6288 17.2003 19.6288 17.2848 19.6288 17.2848V17.4539C19.6288 17.623 19.5442 17.792 19.5442 17.9611C19.4595 17.9611 19.4595 18.0456 19.4595 18.0456V18.2147C19.4595 18.3837 19.4595 18.5528 19.3749 18.7219C19.2903 18.7219 19.2903 18.8064 19.2903 18.8064V19.4827C19.2057 19.4827 19.2057 19.5672 19.2057 19.5672V20.2435C19.1211 20.2435 19.1211 20.328 19.1211 20.328V20.4971L19.2057 20.5816V20.6661C19.2057 20.7507 19.2903 20.9197 19.2903 21.0042C19.2057 21.0042 19.2057 21.0888 19.2057 21.0888C19.2057 21.1733 19.2057 21.1733 19.2903 21.2578L19.3749 21.3424C19.6288 22.0186 19.798 22.6104 20.0518 23.2021C20.1364 23.3712 20.3903 23.4557 20.5595 23.4557C20.8133 23.3712 21.0672 23.3712 21.2364 23.2866C21.321 23.2866 21.4056 23.2021 21.4903 23.2021L21.5749 23.1176C21.6595 23.033 21.6595 22.9485 21.6595 22.864C21.6595 22.6949 21.6595 22.6104 21.5749 22.4413C21.5749 22.2722 21.4903 21.9341 21.4903 21.9341C21.4903 21.765 21.4056 21.6805 21.4056 21.6805H21.321C21.2364 21.596 21.2364 21.5114 21.2364 21.3424C20.898 18.8909 21.321 16.355 22.2518 13.9881C22.3364 13.819 22.2518 13.6499 21.9979 13.5654V12.8046H22.5056V13.5654C22.3364 13.6499 22.2518 13.819 22.2518 13.9881C23.3517 16.355 23.6902 18.8064 23.4363 21.3424C23.4363 21.5114 23.3517 21.596 23.3517 21.6805H23.2671C23.1825 21.6805 23.1825 21.765 23.1825 21.9341V22.5258C23.1825 22.6949 23.1825 22.7794 23.0979 22.9485C23.0979 23.033 23.0979 23.1176 23.1825 23.2021C23.1825 23.2021 23.1825 23.2866 23.2671 23.2866C23.3517 23.3712 23.3517 23.3712 23.521 23.3712C23.7748 23.4557 24.0286 23.4557 24.1979 23.4557C24.4517 23.5402 24.6209 23.3712 24.7055 23.2021C24.9594 22.6104 25.2132 22.0186 25.3824 21.3424C25.8055 21.1733 25.8055 21.1733 25.8055 21.0888ZM22.3364 8.91611V8.83158V8.74705L22.421 8.66252V8.49345V8.40892H22.5056C22.5056 8.40892 22.5902 8.40892 22.5902 8.32439L22.6748 8.23986H22.7594L22.8441 8.32439C22.8441 8.32439 22.8441 8.40892 22.9287 8.40892H22.8441V8.66252L22.9287 8.74705V9.00065L22.8441 9.08518V9.33878H22.7594C22.7594 9.33878 22.6748 9.33878 22.6748 9.42331L22.5902 9.50784H22.5056H22.421L22.3364 9.33878C22.3364 9.33878 22.3364 9.25424 22.2518 9.25424H22.1672V9.08518L22.3364 8.91611V9.00065C22.3364 9.08518 22.3364 8.91611 22.3364 8.91611Z" fill="#000C2C"/>
<path d="M33.6751 31.8244V33.8532C33.7597 33.8532 33.7597 33.9377 33.7597 33.9377V34.6139C33.7597 34.6139 33.7597 34.6985 33.6751 34.6985C33.7597 34.9521 33.7597 35.6283 33.929 35.8819C34.1828 36.3046 34.6059 36.5582 35.2828 36.5582C36.0443 36.5582 37.2289 35.9665 37.4827 35.5438C37.6519 35.3747 37.9058 35.4593 37.9058 35.6283C37.3981 36.5582 36.1289 37.5726 35.1135 37.9952C34.0136 38.4179 33.0828 38.5024 32.4059 38.587H32.0675L31.8136 38.5024C31.8136 38.5024 31.729 38.5024 31.729 38.4179C31.5598 38.3334 31.2213 38.1643 30.6291 38.0798H30.4598C30.4598 38.2488 30.3752 38.3334 30.3752 38.3334L28.9368 38.2488C28.8522 38.2488 28.8522 37.7416 28.7676 37.1499C28.7676 36.5582 28.8522 36.051 28.8522 36.051L30.3752 36.1355C30.4598 36.1355 30.4598 36.2201 30.4598 36.3891C32.0675 36.3046 32.2367 34.4449 32.2367 34.4449H32.1521V33.6841C32.1521 33.6841 32.1521 33.5996 32.2367 33.5996V31.5708L31.9829 30.8945C31.8136 28.105 31.5598 22.6949 31.5598 22.6949C31.5598 22.6949 32.1521 22.4413 32.829 22.4413C33.5059 22.4413 34.0136 22.6949 34.0136 22.6949C34.0136 22.6949 33.929 28.1895 33.8443 30.8945C33.929 31.1481 33.6751 31.8244 33.6751 31.8244Z" fill="#000C2C"/>
<path d="M27.7522 13.2272L27.6676 13.8189H27.583V17.3693H27.6676V17.7074L27.7522 17.792H27.6676V17.8765C27.8368 18.0456 28.0061 18.2992 27.6676 18.5528C27.583 18.6373 27.583 18.6373 27.583 18.6373V18.7218C27.6676 18.7218 27.8368 18.8064 28.2599 18.8064H28.4291L28.5137 22.1877H28.4291L28.2599 22.5258L28.5137 23.4556H29.106L29.3599 22.5258L29.2753 22.1877H29.1906L29.106 18.8064H29.4445C29.7829 18.8064 29.7829 18.7218 29.8675 18.7218V18.6373C29.8675 18.5528 29.7829 18.5528 29.7829 18.5528C29.4445 18.2992 29.6137 18.0456 29.7829 17.8765C29.7829 17.8765 29.7829 17.792 29.8675 17.792V17.3693H29.9522V13.8189H29.8675V13.4808L29.9522 13.3963C29.8676 12.8891 29.6983 12.72 29.6983 12.6355C29.6983 12.551 29.6983 12.6355 29.6137 12.551C29.5291 12.551 29.2753 12.4664 28.8522 12.4664H28.7676C28.4291 12.4664 28.1753 12.4664 28.0907 12.551C28.0907 12.551 28.0061 12.551 28.0061 12.6355C27.9215 12.6355 27.8368 12.8046 27.7522 13.2272Z" fill="#000C2C"/>
<path d="M39.5977 35.4592L42.1361 37.8261L41.2054 38.756L38.667 36.3891L39.5977 35.4592Z" fill="#ED1C24"/>
<path d="M37.4831 41.5457L37.7369 41.2921H35.2831L35.0293 41.5457H37.4831Z" fill="#ED1C24"/>
<path d="M36.2971 42.7291L36.5509 42.4755H34.6895L34.9433 42.7291H36.2971Z" fill="#ED1C24"/>
<path d="M37.9909 40.8693L38.2447 40.6157H35.7909L35.5371 40.8693H37.9909Z" fill="#ED1C24"/>
<path d="M36.8903 42.1374L37.1441 41.8838H34.6904L34.4365 42.1374H36.8903Z" fill="#ED1C24"/>
<path d="M38.583 40.3622L38.8369 40.1086H36.3831L36.2139 40.3622H38.583Z" fill="#ED1C24"/>
<path d="M36.0441 43.0671H35.3672L35.7056 43.4053L36.0441 43.0671Z" fill="#ED1C24"/>
<path d="M40.4451 38.3334L39.0913 37.1499L37.3145 39.0942H39.7682L40.4451 38.3334Z" fill="#ED1C24"/>
<path d="M39.1755 39.686L39.4293 39.4324H36.9755L36.7217 39.686H39.1755Z" fill="#ED1C24"/>
<path d="M19.6289 39.7705V36.8119H21.6596C21.6596 36.8119 21.575 37.3191 22.3365 37.15C23.098 36.9809 25.5518 36.4738 25.5518 36.4738C25.5518 36.4738 25.8056 36.4738 25.8056 36.7274C25.8902 36.8964 25.8902 37.3191 25.8902 37.3191L23.7749 37.8263C23.7749 37.8263 22.675 38.0799 22.0827 38.7561C21.6596 39.2633 21.7442 39.9396 21.7442 39.9396H19.6289V39.7705V39.7705Z" fill="#000C2C"/>
<path d="M19.2907 36.5582C19.2907 36.5582 19.1215 36.051 19.6292 35.6283C20.1369 35.2902 21.1522 34.6985 22.506 34.1913C23.8598 33.7686 23.9445 33.6841 23.9445 33.6841C23.9445 33.6841 24.1137 33.9377 23.606 34.1067C23.0983 34.2758 21.4061 34.8675 21.4061 35.4593C21.4061 35.9665 21.4061 35.8819 21.4907 36.4737C21.4907 36.4737 20.983 36.5582 20.4753 36.6427C19.7984 36.8118 19.2907 36.5582 19.2907 36.5582Z" fill="#000C2C"/>
<path d="M24.876 37.5726L25.8913 37.319L25.9759 37.6571L24.9606 37.9107L24.876 37.5726Z" fill="#000C2C"/>
<path d="M37.3978 8.23984C37.2286 8.32437 37.144 8.23984 37.0593 8.23984C36.3824 8.9161 35.5363 9.33876 34.6056 9.25423C32.7441 9.25423 31.3057 7.64811 31.3057 5.7884C31.3903 4.94308 31.6441 4.18229 32.2364 3.59056C32.1518 3.50603 32.1518 3.33696 32.1518 3.25243L32.321 3.1679C32.4903 2.99883 32.321 2.9143 32.1518 3.08337C31.3903 3.75962 30.9672 4.68948 30.8826 5.7884C30.8826 6.46466 31.0518 7.14092 31.3903 7.73265C31.3057 7.90171 31.2211 8.23984 31.2211 8.23984C31.1365 8.74704 29.6134 8.15531 26.7366 8.32437C26.652 8.32437 26.652 8.23984 26.652 8.23984C26.5674 8.23984 26.5674 8.32437 26.5674 8.32437C26.4828 8.57797 26.4828 9.93049 26.5674 10.1841C26.5674 10.1841 26.5674 10.2686 26.652 10.2686C26.7366 10.2686 26.7366 10.2686 26.7366 10.1841C29.6134 10.4377 30.7134 10.015 31.1365 10.3532C31.1365 10.3532 31.2211 10.4377 31.3057 10.6913V10.7758C31.3057 10.8603 31.3903 10.8603 31.4749 10.8603C31.4749 10.7758 31.4749 10.4377 31.5595 10.0996H32.321C32.5749 10.2686 32.7441 10.015 32.9979 10.1841V10.2686H31.898V10.9449L31.9826 11.6211V11.283V11.7902L32.0672 12.4665L32.1518 13.5654C32.1518 13.5654 33.0825 15.0024 33.0825 15.087C33.1672 15.3406 33.1672 15.3406 33.1672 15.4251V15.5096C33.3364 15.5942 33.421 16.1859 33.421 16.1859C33.5056 17.2848 33.9287 19.2291 34.521 20.497C34.6056 20.6661 34.6902 20.8352 34.7748 21.0042L34.8594 21.0888H34.944C35.0286 21.1733 35.0286 21.3424 35.4517 21.3424V21.4269L35.6209 21.765L35.8748 21.6805C35.7902 21.596 35.7902 21.5114 35.7055 21.4269V21.3424C35.7902 21.3424 35.8748 21.2578 35.9594 21.2578H36.044C36.2132 21.2578 36.3824 21.1733 36.3824 21.0888C36.3824 21.0042 36.4671 21.0042 36.4671 21.0042V20.6661C36.4671 20.6661 36.4671 20.5816 36.3824 20.5816C36.1286 20.497 35.9594 20.328 35.8748 20.2434L35.7902 20.1589C35.7055 19.9898 35.6209 19.6517 35.5363 19.2291L35.6209 19.1445V19.06H35.7055L35.7902 18.9755C35.8748 18.8909 35.8748 18.8909 35.8748 18.7219V18.6373L35.7902 18.4683V18.3837L35.4517 18.0456C35.4517 18.0456 35.4517 17.9611 35.3671 17.9611V17.8765V17.792V17.7075C35.3671 17.7075 35.2825 17.6229 35.4517 17.5384C35.5363 17.5384 35.5363 17.4539 35.7055 17.4539C35.7902 17.3693 35.7902 17.3693 35.8748 17.2003C35.8748 17.1157 35.9594 16.524 35.9594 16.524C36.044 16.2704 35.7902 15.7632 35.7055 14.9179V13.0582V12.9737C35.7055 11.7902 35.7902 10.7758 35.8748 10.6067V10.5222V9.33876C36.5517 9.08517 37.0593 8.6625 37.4824 8.23984C37.6516 8.23984 37.567 8.07078 37.3978 8.23984ZM31.3903 8.83157C31.3903 8.74704 31.4749 8.23984 31.4749 8.15531C31.5595 8.23984 31.8134 8.6625 32.2364 8.9161C32.2364 8.83157 31.3903 8.83157 31.3903 8.83157Z" fill="#000C2C"/>
<path d="M37.7369 6.38019C37.6523 6.46472 37.5677 6.46472 37.4831 6.46472C37.3985 6.46472 37.3985 6.38019 37.3139 6.38019V6.21113L37.6523 6.12659L37.7369 5.873C37.7369 5.873 37.7369 5.78846 37.6523 5.78846C37.5677 5.873 37.4831 5.873 37.3985 5.873C37.3139 5.873 37.3139 5.873 37.3139 5.78846V5.70393L37.6523 5.45033L37.7369 5.19674C37.7369 5.19674 37.7369 5.1122 37.6523 5.19674C37.5677 5.28127 37.3985 5.28127 37.3985 5.28127C37.3139 5.28127 37.3139 5.28127 37.3139 5.19674C37.3139 5.1122 37.3139 5.1122 37.2293 5.02767L37.4831 4.77408C37.4831 4.77408 37.4831 4.68954 37.3985 4.77408C37.3985 4.85861 37.3139 4.94314 37.2293 4.94314H37.1446C37.1446 4.85861 37.1446 4.85861 37.1446 4.85861L37.3985 4.60501V4.35141H37.3139C37.2293 4.52048 37.06 4.60501 37.06 4.60501H36.9754C36.9754 4.52048 36.8908 4.52048 36.8908 4.52048L37.06 4.18235L36.9754 3.92875H36.8908C36.8062 4.18235 36.7216 4.18235 36.637 4.18235L36.5524 4.09782L36.637 3.75969L36.5524 3.50609H36.4677H36.3831C36.2985 3.75969 36.2985 3.84422 36.1293 3.84422L36.0447 3.75969L36.1293 3.42156L36.2139 3.16796H36.1293H36.0447C36.0447 3.42156 35.9601 3.50609 35.8755 3.50609C35.7908 3.50609 35.7908 3.42156 35.7908 3.42156V3.08343L35.6216 2.91436H35.537C35.6216 3.16796 35.537 3.25249 35.4524 3.25249C35.3678 3.25249 35.3678 3.25249 35.3678 3.16796L35.2832 2.82983L35.0293 2.7453H34.9447C35.0293 2.9989 35.0293 3.08343 34.8601 3.08343H34.7755L34.6909 2.7453L34.437 2.66077C34.437 2.66077 34.3524 2.66077 34.3524 2.7453C34.5216 2.9989 34.437 3.08343 34.3524 3.08343H34.2678L34.014 2.7453L33.7601 2.66077C33.7601 2.66077 33.6755 2.66077 33.7601 2.7453C33.9294 2.9989 33.9294 3.08343 33.8447 3.08343H33.7601L33.5063 2.82983H33.2525C33.2525 2.82983 33.1678 2.82983 33.2525 2.91436C33.5063 3.08343 33.5063 3.25249 33.4217 3.25249C33.3371 3.25249 33.3371 3.25249 33.3371 3.33703V3.16796H33.0832C33.0832 3.16796 32.9986 3.25249 33.0832 3.25249C33.3371 3.42156 33.3371 3.50609 33.3371 3.59062C33.2525 3.59062 33.2525 3.67515 33.2525 3.67515L32.914 3.50609L32.5756 3.59062C32.5756 3.59062 32.4909 3.67515 32.5756 3.67515C32.8294 3.75969 32.8294 3.92875 32.8294 4.01328H32.7448L32.4063 3.92875L32.2371 4.01328C32.4909 4.09782 32.5756 4.18235 32.5756 4.26688L32.4909 4.35141L32.0679 4.26688L31.814 4.43595V4.52048H31.8986C32.1525 4.52048 32.1525 4.60501 32.1525 4.77408C32.1525 4.85861 32.0679 4.85861 32.0679 4.85861H31.7294L31.5602 5.02767V5.1122H31.7294C31.8986 5.1122 31.9833 5.19674 31.9833 5.28127C31.9833 5.28127 31.9833 5.3658 31.8986 5.3658L31.5602 5.45033L31.4756 5.53487V5.6194C31.5602 5.53487 31.6448 5.53487 31.7294 5.53487C31.814 5.53487 31.8986 5.6194 31.8986 5.6194V5.70393L31.5602 5.873V6.12659C31.5602 6.12659 31.5602 6.21113 31.6448 6.21113C31.7294 6.12659 31.8986 6.12659 31.8986 6.12659C31.9833 6.12659 31.9833 6.21113 32.0679 6.21113V6.29566L31.7294 6.54925H31.6448C31.6448 6.54925 31.6448 6.63379 31.7294 6.54925C31.814 6.46472 31.9833 6.46472 31.9833 6.46472C32.0679 6.46472 32.0679 6.54925 32.0679 6.54925L31.814 6.80285V7.05645C31.814 7.05645 31.814 7.14098 31.8986 7.05645C31.9833 6.97192 32.1525 6.88738 32.1525 6.88738C32.2371 6.88738 32.2371 6.97192 32.2371 6.97192C32.2371 6.97192 32.2371 7.05645 32.3217 7.05645L32.0679 7.39458V7.64818H32.1525C32.2371 7.47911 32.4063 7.39458 32.4063 7.39458C32.4909 7.39458 32.4909 7.39458 32.4909 7.47911V7.39458L32.3217 7.73271L32.4063 7.9863H32.4909C32.5756 7.73271 32.6602 7.73271 32.7448 7.73271H32.8294L32.914 7.81724L32.6602 8.32443L32.7448 8.57803H32.8294C32.914 8.32443 32.9986 8.2399 33.0832 8.2399H32.9986L33.0832 8.32443L32.9986 8.66256L33.1678 8.91616H33.2525C33.2525 8.66256 33.3371 8.57803 33.5063 8.57803C33.5063 8.57803 33.5909 8.57803 33.5909 8.66256V9.00069L33.7601 9.16976H33.8447C33.7601 8.91616 33.9294 8.83163 33.9294 8.83163H34.014L34.0986 9.16976L34.3524 9.25429H34.437C34.3524 9.00069 34.437 8.91616 34.5216 8.91616H34.6063L34.7755 9.25429L35.0293 9.33882C35.0293 9.33882 35.1139 9.33882 35.0293 9.25429C34.8601 9.00069 34.9447 8.91616 35.0293 8.91616H35.1139L35.3678 9.25429H35.537C35.537 9.25429 35.6216 9.25429 35.537 9.16976C35.3678 8.91616 35.3678 8.83163 35.4524 8.83163H35.537L35.7908 9.08523H36.0447C36.0447 9.08523 36.1293 9.08522 36.0447 9.00069C35.7908 8.83163 35.7908 8.66256 35.8755 8.66256C35.9601 8.66256 35.9601 8.66256 35.9601 8.57803L36.2139 8.83163H36.4677C36.4677 8.83163 36.5524 8.83163 36.4677 8.7471C36.2139 8.57803 36.2139 8.4935 36.2139 8.40897C36.2985 8.40897 36.2985 8.32443 36.2985 8.32443L36.637 8.4935L36.8908 8.40897V8.2399C36.637 8.15537 36.637 7.9863 36.637 7.9863L36.7216 7.90177L37.06 7.9863L37.3139 7.90177V7.81724C37.06 7.73271 36.9754 7.64818 36.9754 7.56364C37.06 7.47911 37.06 7.47911 37.06 7.47911L37.3985 7.56364L37.2293 7.39458V7.31005H37.1446C36.8908 7.31005 36.8908 7.22551 36.8908 7.14098C36.8908 7.05645 36.9754 7.05645 36.9754 7.05645H37.3139L37.4831 6.88738V6.80285H37.3139C37.2293 6.80285 37.1446 6.71832 37.06 6.71832C37.06 6.63379 37.1446 6.63379 37.1446 6.63379L37.5677 6.54925L37.7369 6.38019C37.7369 6.38019 37.7369 6.46472 37.7369 6.38019Z" fill="#000C2C"/>
<path d="M44.6746 26.7523C44.59 26.6678 44.59 26.6678 44.59 26.6678H43.5746V27.175H43.6592V27.8513H43.1516V28.2739H43.0669C43.0669 28.0203 42.9823 27.7667 42.8131 27.5977V27.2595V27.175V27.0905C42.8131 26.5833 42.1362 25.9916 41.4593 25.4844C41.2901 25.1462 40.7824 24.8081 40.1055 24.8081C39.4286 24.8081 38.8363 25.0617 38.7517 25.4844C37.9902 25.907 37.3979 26.4988 37.3979 27.0905V27.5977C37.2287 27.8513 37.1441 28.1049 37.1441 28.2739H37.0594V27.8513H36.5518V28.2739H36.2133V27.6822C36.2133 27.6822 36.2133 27.5977 36.1287 27.5977V25.6534C36.1287 25.5689 36.0441 25.3998 35.8749 25.3998H35.7903C35.7056 25.3998 35.5364 25.4844 35.5364 25.6534V28.2739C35.4518 28.2739 35.3672 28.3585 35.3672 28.443C35.3672 28.5275 35.4518 28.6121 35.5364 28.6121V31.0635C35.5364 31.148 35.621 31.3171 35.7903 31.3171H35.8749C35.9595 31.3171 36.1287 31.2326 36.1287 31.0635V29.1193C36.2133 29.1193 36.2133 29.1193 36.2133 29.0347V28.5275H36.5518V34.8675H37.0594V33.0077L38.244 32.0779H43.1516V32.6696C43.0669 32.6696 42.8977 32.5851 42.8131 32.5851C42.0516 32.5851 41.4593 33.2613 41.4593 33.9376C41.4593 34.6139 42.1362 35.2901 42.8131 35.2901C43.49 35.2901 44.1669 34.6139 44.1669 33.9376C44.1669 33.3459 43.8285 32.8387 43.3208 32.6696V31.9934H43.4054V30.2182H46.1976H45.4361H46.3668V27.5977C46.4515 27.5977 44.6746 26.7523 44.6746 26.7523ZM40.0209 25.1462C40.6978 25.1462 41.2055 25.3998 41.2055 25.738C41.2055 26.0761 40.6978 26.3297 40.0209 26.3297C39.344 26.3297 38.8363 26.0761 38.8363 25.738C38.9209 25.3998 39.4286 25.1462 40.0209 25.1462ZM43.1516 31.6552H36.9748V28.6121H37.0594C37.1441 28.7811 37.1441 28.9502 37.3133 29.1193V29.3729C37.3133 30.2182 38.4979 31.148 40.1055 31.148C41.6285 31.148 42.8977 30.2182 42.8977 29.3729V29.1193C42.9823 28.9502 43.0669 28.8657 43.1516 28.6966V28.6966V31.6552ZM42.9823 34.6139C42.6439 34.6139 42.4747 34.3603 42.4747 34.1067C42.4747 33.7685 42.7285 33.5995 42.9823 33.5995C43.3208 33.5995 43.49 33.8531 43.49 34.1067C43.49 34.3603 43.2362 34.6139 42.9823 34.6139Z" fill="#000C2C"/>
<path d="M24.876 2.82971H29.6143V5.45022H24.876V2.82971Z" fill="#ED1C24"/>
<path d="M19.4609 2.82971H24.3685V5.45022H19.4609V2.82971Z" fill="#ED1C24"/>
<path d="M46.874 21.8496C46.3663 21.1733 45.6894 21.1733 45.1817 21.8496C45.0971 22.1032 44.9279 22.2723 44.9279 22.5259C44.5048 22.5259 44.0817 22.6104 43.6587 22.6104C43.5741 22.5259 43.5741 22.4413 43.5741 22.3568C43.4895 22.2723 43.2356 21.8496 43.2356 21.8496C43.2356 21.8496 42.8126 22.4413 42.7279 22.6104H42.3049L41.7972 21.9341C41.7972 21.9341 41.4588 22.4413 41.2895 22.6104H40.7819C40.6972 22.5259 40.528 22.1032 40.4434 21.9341C40.4434 21.9341 40.1049 22.3568 40.0203 22.6104C39.6819 22.6949 39.5973 22.6949 39.6819 22.9485V23.1176C39.5973 23.4557 39.6819 23.4557 40.1049 23.4557C40.3588 23.4557 40.528 23.4557 40.6972 23.5402L41.2049 24.2165C41.2895 24.132 41.5434 23.5402 41.5434 23.5402C41.5434 23.5402 42.051 23.6248 42.1357 23.6248C42.2203 23.7938 42.5587 24.301 42.5587 24.301C42.5587 24.301 42.8972 23.7938 43.0664 23.6248H43.5741C43.6587 23.8784 43.9971 24.3856 44.0817 24.3856C44.1664 24.301 44.4202 23.8784 44.5894 23.7093H44.8433C44.8433 23.7938 44.9279 23.7938 44.9279 23.7938C45.0125 23.9629 45.0125 24.132 45.1817 24.301C45.6894 24.9773 46.3663 24.9773 46.874 24.301C47.297 23.7093 47.297 22.6104 46.874 21.8496ZM46.6201 23.3712H46.1125V24.132C46.1125 24.301 46.0278 24.3856 45.9432 24.3856C45.8586 24.3856 45.774 24.301 45.774 24.132V23.3712H45.2663C45.1817 23.3712 45.0971 23.2867 45.0971 23.1176C45.0971 22.9485 45.1817 22.864 45.2663 22.864H45.774V22.1032C45.774 21.9341 45.8586 21.8496 45.9432 21.8496C46.0278 21.8496 46.1125 21.9341 46.1125 22.1032V22.864H46.6201C46.7047 22.864 46.7894 22.9485 46.7894 23.1176C46.874 23.2867 46.7047 23.3712 46.6201 23.3712Z" fill="#000C2C"/>
<path d="M16.5847 25.3155V25.1464C16.5847 24.8928 16.5001 24.3011 16.5001 24.2165C16.5001 23.963 16.4155 23.8784 16.2463 23.8784H4.23124L4.56969 26.2453C4.56969 26.2453 3.63895 27.936 3.46973 28.0205L3.63895 28.2741L3.72356 28.3586C3.89279 28.2741 4.06202 28.8658 4.23124 28.8658C4.40047 28.8658 4.31585 28.2741 4.48508 28.1896C4.65431 28.105 4.82353 28.6968 4.99276 28.6968C5.16198 28.6968 5.07737 28.105 5.24659 28.0205C5.41582 27.936 5.58505 28.5277 5.75427 28.5277C5.83888 28.5277 5.83888 27.936 6.00811 27.8514C6.17733 27.7669 6.34656 28.3586 6.51579 28.3586C6.68501 28.3586 6.6004 27.7669 6.76962 27.6824C6.93885 27.5978 7.10808 28.1896 7.2773 28.1896C7.44653 28.1896 7.02346 27.6824 7.19269 27.6824C7.36191 27.5978 7.53114 28.1896 7.70036 28.1896C7.78498 28.1896 7.78498 27.5978 7.9542 27.5133C8.12343 27.4288 8.29265 28.0205 8.46188 28.0205C8.54649 28.0205 8.54649 27.4288 8.71572 27.3442C8.88494 27.2597 9.05417 27.8514 9.22339 27.8514C9.30801 27.8514 9.30801 27.2597 9.47723 27.1752C9.64646 27.0906 9.81568 27.6824 9.98491 27.6824C10.0695 27.6824 10.0695 27.0906 10.2387 27.0061C10.408 27.0061 10.5772 27.5133 10.6618 27.5133C10.7464 27.5133 10.7464 26.9216 10.9156 26.8371C11.0849 26.7525 11.2541 27.3442 11.4233 27.3442C11.5079 27.3442 11.5079 26.7525 11.6772 26.668C11.8464 26.5835 12.0156 27.1752 12.1848 27.1752C12.2695 27.1752 12.2695 26.5835 12.4387 26.4989C12.6079 26.4144 12.7771 27.0061 12.9464 27.0061C13.031 27.0061 13.031 26.4144 13.2002 26.3299C13.3694 26.2453 13.5386 26.8371 13.7079 26.8371C13.7925 26.8371 13.7925 26.2453 13.9617 26.1608C14.1309 26.0763 14.3002 26.668 14.4694 26.668C14.6386 26.668 14.554 26.0763 14.7232 25.9917C14.8924 25.9072 15.0617 26.4989 15.2309 26.4989C15.4001 26.4989 15.3155 25.9072 15.4847 25.8227C15.654 25.7381 15.8232 26.3299 15.9924 26.3299C16.1616 26.3299 16.077 25.7381 16.2463 25.6536C16.4155 25.5691 16.5847 26.1608 16.7539 26.1608C16.8385 26.1608 16.8385 25.5691 17.0078 25.4845C17.177 25.4 17.3462 25.9917 17.5154 25.9917C16.5847 26.1608 16.5847 25.7381 16.5847 25.3155ZM15.9078 24.5547H15.5694C15.4847 24.5547 15.4001 24.4701 15.4001 24.3856C15.4001 24.3011 15.4847 24.2165 15.5694 24.2165H15.9078C15.9924 24.2165 16.077 24.3011 16.077 24.3856C16.1616 24.4701 15.9924 24.5547 15.9078 24.5547Z" fill="#000C2C"/>
<path d="M22.7607 -0.213379H27.6683V2.40712H22.7607V-0.213379V-0.213379Z" fill="#ED1C24"/>
<path d="M40.6997 8.49353C40.3613 8.49353 40.1074 8.74713 40.1074 9.08526C40.1074 9.42339 40.3613 9.67698 40.6997 9.67698C41.0382 9.67698 41.292 9.42339 41.292 9.08526C41.292 8.74713 41.0382 8.49353 40.6997 8.49353ZM40.6997 9.42339C40.5305 9.42339 40.3613 9.25432 40.3613 9.08526C40.3613 8.91619 40.5305 8.74713 40.6997 8.74713C40.8689 8.74713 41.0382 8.91619 41.0382 9.08526C41.0382 9.33885 40.8689 9.42339 40.6997 9.42339Z" fill="#000C2C"/>
<path d="M42.5605 9.00064V8.83158H42.3067V8.74705C42.3913 8.66251 42.3913 8.66251 42.3913 8.57798C42.3913 8.49345 42.3913 8.40892 42.3913 8.23985L42.3067 8.07079L42.0528 8.23985C42.0528 8.23985 42.0528 8.23985 42.0528 8.15532C42.0528 8.07079 42.1374 7.98625 42.1374 7.98625C42.1374 7.90172 42.1374 7.81719 42.0528 7.73266L41.8836 7.56359L41.7144 7.73266C41.7144 7.73266 41.7144 7.73266 41.6298 7.73266C41.6298 7.64813 41.6298 7.56359 41.6298 7.56359C41.6298 7.47906 41.5452 7.39453 41.3759 7.31L41.2067 7.22546L41.1221 7.47906C41.1221 7.47906 41.1221 7.47906 41.0375 7.47906C40.9529 7.31 40.8682 7.22546 40.6144 7.22546H40.4452V7.56359H40.3606C40.276 7.39453 40.1067 7.39453 40.0221 7.39453C39.9375 7.39453 39.9375 7.39453 39.8529 7.39453L39.6837 7.47906L39.7683 7.73266C39.7683 7.73266 39.7683 7.73266 39.6837 7.73266C39.5991 7.73266 39.5144 7.64813 39.5144 7.64813C39.4298 7.64813 39.3452 7.64813 39.2606 7.73266L39.0914 7.90172L39.2606 8.07079C39.2606 8.07079 39.2606 8.07079 39.2606 8.15532C39.2606 8.15532 39.2606 8.15532 39.176 8.15532C39.0068 8.15532 38.8375 8.23985 38.8375 8.40892L38.7529 8.57798L39.0068 8.66251C39.0068 8.66251 39.0068 8.66251 39.0068 8.74705C38.8375 8.83158 38.7529 8.91611 38.7529 9.16971V9.33877H39.0914V9.4233C39.0068 9.50784 39.0068 9.50784 39.0068 9.59237C39.0068 9.6769 39.0068 9.76143 39.0068 9.9305L39.0914 10.0996L39.3452 10.015C39.3452 10.015 39.3452 10.015 39.3452 10.0996C39.3452 10.1841 39.2606 10.2686 39.2606 10.2686C39.2606 10.3532 39.2606 10.4377 39.3452 10.5222L39.5144 10.6913L39.6837 10.5222C39.6837 10.5222 39.6837 10.5222 39.7683 10.5222C39.7683 10.6068 39.7683 10.6913 39.7683 10.6913C39.7683 10.7758 39.8529 10.8604 40.0221 10.9449L40.1913 11.0294L40.276 10.7758C40.276 10.7758 40.276 10.7758 40.3606 10.7758C40.4452 10.9449 40.5298 11.0294 40.7836 11.0294H40.9529V10.6913H41.0375C41.1221 10.7758 41.2067 10.8604 41.3759 10.8604C41.4605 10.8604 41.4605 10.8604 41.5451 10.8604L41.7144 10.7758L41.6298 10.5222C41.6298 10.5222 41.6298 10.5222 41.7144 10.5222C41.799 10.5222 41.8836 10.6068 41.8836 10.6068C41.9682 10.6068 42.0528 10.6068 42.1374 10.5222L42.3067 10.3532L42.1374 10.1841C42.1374 10.1841 42.1374 10.1841 42.1374 10.0996C42.1374 10.0996 42.1374 10.0996 42.2221 10.0996C42.3913 10.0996 42.5605 10.015 42.5605 9.84597L42.6451 9.6769L42.3067 9.4233C42.3067 9.4233 42.3067 9.42331 42.3067 9.33877C42.4759 9.33877 42.5605 9.16971 42.5605 9.00064ZM40.699 9.9305C40.276 9.9305 39.9375 9.59237 39.9375 9.16971C39.9375 8.74705 40.276 8.40892 40.699 8.40892C41.1221 8.40892 41.4605 8.66251 41.4605 9.08518C41.4605 9.50784 41.1221 9.9305 40.699 9.9305Z" fill="#000C2C"/>
<path d="M40.6984 9.76145C41.0722 9.76145 41.3753 9.45868 41.3753 9.08519C41.3753 8.71171 41.0722 8.40894 40.6984 8.40894C40.3245 8.40894 40.0215 8.71171 40.0215 9.08519C40.0215 9.45868 40.3245 9.76145 40.6984 9.76145Z" fill="#000C2C"/>
<path d="M187.138 20.5164H187.638V20.0164V8.53662H190.42C191.33 8.53662 191.978 8.74357 192.444 9.02893C192.912 9.31492 193.226 9.69716 193.439 10.0902C193.873 10.8907 193.873 11.7089 193.873 11.7175V11.7176V37.6534H187.638V26.0398V25.5398H187.138H177.991V20.5164H187.138Z" fill="#000C2C" stroke="#374F81"/>
<path d="M172.199 8.53662C172.199 8.53662 172.199 8.53662 172.199 8.53662L172.205 8.53668L172.232 8.53735C172.257 8.53815 172.296 8.53983 172.348 8.54331C172.45 8.5503 172.6 8.56448 172.781 8.59319C173.146 8.65101 173.624 8.7657 174.095 8.99008C174.566 9.2138 175.017 9.54037 175.352 10.0176C175.683 10.4905 175.92 11.1411 175.92 12.0522V37.5865H169.686V8.53662H172.199Z" fill="#000C2C" stroke="#374F81"/>
<path d="M86.2507 11.2288L86.2508 11.2289L86.2551 11.217C86.255 11.2171 86.255 11.2171 86.2551 11.2169L86.2552 11.2166L86.2553 11.2163L86.2554 11.2159L86.2563 11.2137L86.2633 11.1952C86.2701 11.1778 86.281 11.1503 86.2964 11.1142C86.327 11.0418 86.3749 10.9356 86.4413 10.8068C86.5747 10.5479 86.7795 10.2042 87.0643 9.86273C87.6336 9.18021 88.4934 8.53662 89.7368 8.53662H92.8092L103.949 37.6534H97.7263L96.4378 34.0369L96.3195 33.7047H95.9668H85.975L87.8702 28.7483H93.6892H94.4138L94.1566 28.0708L90.4722 18.3665L90.0045 17.1346L89.5372 18.3667L82.2237 37.6534H76.0279L76.0725 37.5198L86.2507 11.2288Z" fill="#000C2C" stroke="#374F81"/>
<path d="M71.3791 32.6969C73.0951 32.6969 74.6458 32.2494 76.0561 31.4568C75.997 31.6142 75.9364 31.7765 75.876 31.9393C75.6956 32.4255 75.5158 32.9198 75.3849 33.3025C75.3198 33.4928 75.2647 33.6618 75.2274 33.7907C75.2092 33.8537 75.1923 33.917 75.1811 33.9725C75.1774 33.991 75.173 34.0148 75.1696 34.0414C74.8793 34.8428 74.575 35.6104 74.3323 36.2085C74.2431 36.4284 74.1596 36.6314 74.0879 36.8058C73.9904 37.0429 73.9145 37.2274 73.875 37.3307C73.7852 37.4836 73.713 37.6757 73.6622 37.8207C73.645 37.8699 73.6273 37.9224 73.6104 37.974C72.9206 38.0722 72.1846 38.1218 71.4461 38.1218C63.2141 38.1218 56.6055 31.5187 56.6055 23.2957C56.6055 15.0727 63.2141 8.4696 71.4461 8.4696C74.7836 8.4696 78.0612 9.58814 80.7177 11.712L79.1046 13.6014L79.1045 13.6013L79.0964 13.6113C78.1244 14.8108 76.1289 15.1158 74.7899 14.3035L74.788 14.3022L74.7875 14.3019L74.7724 14.2928C74.7601 14.2855 74.744 14.2761 74.7239 14.2651C74.6838 14.243 74.628 14.2142 74.5559 14.181C74.4118 14.1145 74.2027 14.0306 73.9238 13.9484C73.3654 13.7838 72.5305 13.6268 71.3791 13.6268C66.1462 13.6268 61.8355 17.9327 61.8355 23.1618C61.8355 28.3886 66.0768 32.6969 71.3791 32.6969Z" fill="#000C2C" stroke="#374F81"/>
<path d="M137.006 11.2761L137.021 11.2469L137.031 11.217L137.032 11.2166L137.032 11.2163L137.032 11.2159L137.033 11.2139L137.04 11.1955C137.046 11.1782 137.057 11.1508 137.073 11.1148C137.103 11.0427 137.151 10.9367 137.218 10.8081C137.352 10.5497 137.559 10.2065 137.847 9.86523C138.422 9.18443 139.299 8.53662 140.58 8.53662H156.323C162.206 8.53662 167.011 13.3294 167.077 19.2828C167.076 25.0992 162.339 29.9569 156.39 29.9569H151.598V25.0004H155.787C159.01 25.0004 161.579 22.4346 161.579 19.2133C161.579 15.9919 159.01 13.4261 155.787 13.4261H149.959H149.459V13.9261V37.5865H143.224V14.3277L142.279 14.0985L133.239 31.6263C133.239 31.6274 133.238 31.6286 133.238 31.6297C132.468 33.0675 131.812 34.2278 131.172 35.1176C130.532 36.0087 129.936 36.5871 129.303 36.903L129.288 36.9108L129.273 36.9197C128.105 37.6092 126.959 37.6014 125.237 37.5897C125.003 37.5881 124.759 37.5865 124.503 37.5865H120.983V32.63H124.503C125.695 32.63 126.554 32.2684 127.002 31.6435C127.451 31.0176 127.398 30.2495 127.011 29.6672L118.92 13.7001L118.781 13.4261H118.474H113.315H112.815V13.9261V37.6534H106.647V13.993V13.493H106.147H97.113L95.2177 8.53662H119.88C121.353 8.53662 122.406 9.20834 123.104 9.89813C123.454 10.2438 123.711 10.5904 123.879 10.8499C123.963 10.9792 124.024 11.0858 124.064 11.1581C124.083 11.1943 124.098 11.2218 124.106 11.2393L124.116 11.2577L124.117 11.2599L124.117 11.2603L124.117 11.2606L124.117 11.2609L124.117 11.2609L124.117 11.2611L124.12 11.2671L124.124 11.2741L130.086 23.0531L130.529 23.9295L130.977 23.0551L137.006 11.2761Z" fill="#000C2C" stroke="#374F81"/>
<path d="M199.396 9.375H200.803C201.607 9.375 202.344 9.64273 202.344 10.5798C202.344 11.1822 202.009 11.5838 201.406 11.7176L202.545 13.5917H201.607L200.602 11.7846H200.133V13.5917H199.396V9.375V9.375ZM200.736 11.1822C201.138 11.1822 201.674 11.1152 201.674 10.5128C201.674 10.1113 201.272 9.91046 200.803 9.91046H200.133V11.1152H200.736V11.1822Z" fill="#000C2C"/>
<path d="M200.802 15.1314C198.859 15.1314 197.318 13.5919 197.318 11.6509C197.318 9.70985 198.859 8.17041 200.802 8.17041C202.745 8.17041 204.286 9.70985 204.286 11.6509C204.286 13.5919 202.745 15.1314 200.802 15.1314ZM200.802 8.50507C199.127 8.50507 197.787 9.84372 197.787 11.517C197.787 13.1903 199.127 14.529 200.802 14.529C202.477 14.529 203.817 13.1903 203.817 11.517C203.817 9.84372 202.477 8.50507 200.802 8.50507Z" fill="#000C2C"/>
</svg>
